# File exported by Houdini 21.0.559 (www.sidefx.com)
# 787 points
# 4161 vertices
# 1387 primitives
# Bounds: [-1.36380768, -0.5, -1.02914238] to [1.36380768, 0.5, 1.49666166]
g 
v -1.50995788e-07 0.5 -0.99999994
v -0.123780675 0.498972684 -0.96001792
v -0.237436473 0.495894998 -0.905447304
v -0.339399338 0.490779579 -0.838322639
v -0.428481191 0.483647436 -0.760811687
v -0.503875852 0.474527866 -0.675147474
v -0.565149248 0.463458359 -0.583562851
v -0.612219512 0.450484425 -0.488228738
v -0.645325959 0.435659349 -0.391200453
v -0.664990604 0.419044048 -0.294371545
v -0.671973109 0.400706798 -0.199437991
v -0.667222142 0.38072294 -0.107871182
v -0.65182364 0.359174669 -0.0209026542
v -0.626950443 0.336150438 0.0604811683
v -0.593813241 0.311744928 0.135533884
v -0.55361551 0.286058307 0.203735679
v -0.507514775 0.259196281 0.26477015
v -0.456590205 0.231269166 0.318497509
v -0.401818186 0.202391654 0.364920706
v -0.344057441 0.172682524 0.404149443
v -0.284041584 0.142263815 0.436364055
v -0.22238104 0.111260451 0.461779058
v -0.159573704 0.079799965 0.48061046
v -0.0960210189 0.0480115339 0.493047416
v -0.0320515521 0.0160257798 0.499229044
v 0.0320515521 -0.0160257798 0.499229044
v 0.096020937 -0.0480114929 0.493047416
v 0.159573585 -0.0797999129 0.48061049
v 0.222380936 -0.111260399 0.461779088
v 0.284041584 -0.142263815 0.436364055
v 0.344057441 -0.172682524 0.404149443
v 0.401818186 -0.202391654 0.364920706
v 0.456590146 -0.231269106 0.318497628
v 0.507514656 -0.259196222 0.264770329
v 0.553615451 -0.286058277 0.203735799
v 0.593813181 -0.311744839 0.135534167
v 0.626950443 -0.336150438 0.0604811683
v 0.65182364 -0.359174669 -0.0209026542
v 0.667222142 -0.38072294 -0.107871182
v 0.671973169 -0.400706768 -0.199437916
v 0.664990664 -0.419044018 -0.294371456
v 0.645326078 -0.435659289 -0.391200066
v 0.612219512 -0.450484425 -0.488228738
v 0.565149248 -0.463458359 -0.583562851
v 0.503875852 -0.474527866 -0.675147474
v 0.42848137 -0.483647406 -0.760811567
v 0.339399546 -0.490779549 -0.838322461
v 0.237436652 -0.495894998 -0.905447185
v 0.123780675 -0.498972684 -0.96001792
v 1.50995788e-07 -0.5 -0.99999994
v -1.50995788e-07 0.447368413 -0.99999994
v -0.481796801 0.400355697 -0.732942641
v -0.560933173 0.379342437 -0.644732296
v -0.616327405 0.390672505 -0.538627148
v -0.707435429 0.282914281 0.0143568488
v 0.49232465 -0.203554332 0.347044408
v 0.684512556 -0.326149464 -0.0355366804
v 0.580418169 -0.407161951 -0.590187311
v 0.467217684 -0.390781999 -0.751235306
v 1.50995788e-07 -0.447368413 -0.99999994
v -1.50995803e-07 0.394736826 -1
v -0.163845062 0.41834262 -0.946401715
v -0.357181698 0.366911441 -0.849849164
v -0.633133471 0.311101586 -0.581193686
v -0.690604568 0.361665338 -0.351217449
v -0.618991137 0.258464754 0.190252781
v -0.407656759 0.161688507 0.430399686
v -0.2419402 0.0929778293 0.523011744
v -0.0397731662 0.0164959468 0.549888313
v 0.050765831 -0.0168377012 0.592175305
v 0.245871156 -0.0904942676 0.528370857
v 0.325686425 -0.128084123 0.47794807
v 0.629145443 -0.248245314 0.195690468
v 0.68599987 -0.285552591 0.0480172634
v 0.719254434 -0.320265561 -0.148242369
v 0.706784844 -0.349283963 -0.244928271
v 0.383429468 -0.398265004 -0.822882354
v 1.50995803e-07 -0.394736826 -1
v -1.50995803e-07 0.342105269 -1
v -0.0891785398 0.3467049 -0.977355957
v -0.198651344 0.330451906 -0.941146493
v -0.290703923 0.306145489 -0.90301162
v -0.523708045 0.326947838 -0.719776273
v -0.677934289 0.332532197 -0.459744424
v -0.737437606 0.283367366 -0.354174942
v -0.718009591 0.332516044 -0.255177826
v -0.76741761 0.209152058 0.0602537096
v -0.67969805 0.255724818 0.121809259
v -0.589982092 0.225188866 0.267595798
v -0.524695814 0.213777989 0.321789205
v -0.48545453 0.176968008 0.394689441
v -0.351178855 0.124726683 0.495314837
v -0.139374524 0.0500219688 0.570111156
v 0.166045517 -0.0542686656 0.579968691
v 0.433891803 -0.158429071 0.431619495
v 0.599870026 -0.205438823 0.290825248
v 0.694268703 -0.239741042 0.128972992
v 0.744300544 -0.265120775 -0.0488540828
v 0.714979231 -0.325500309 -0.331103534
v 0.646928608 -0.365967363 -0.493128061
v 0.540333867 -0.365105897 -0.680234432
v 0.0684513897 -0.404458582 -0.981089473
v 1.50995803e-07 -0.342105269 -1
v -1.50995803e-07 0.289473683 -1
v -0.231208548 0.253937304 -0.937746406
v -0.459676862 0.218209848 -0.819659472
v -0.529388905 0.248533577 -0.749859035
v -0.586455941 0.281440556 -0.671344757
v -0.645499468 0.235690534 -0.622275233
v -0.781060398 0.240552232 -0.260875463
v -0.674741685 0.208589256 0.219380289
v -0.455736041 0.128440097 0.491043091
v -0.313025624 0.079214029 0.599624157
v -0.224656194 0.060635481 0.616143227
v -0.0550106838 0.0151863862 0.645328045
v 0.263602912 -0.0696714446 0.604062319
v 0.339386135 -0.0933309868 0.56355387
v 0.411421448 -0.117579132 0.51512897
v 0.700976372 -0.192896709 0.215255082
v 0.760030568 -0.221237242 0.0414004996
v 0.788848579 -0.231746972 -0.151922658
v 0.705518663 -0.299071878 -0.434038103
v 0.610849679 -0.319672614 -0.60899508
v 0.431799114 -0.303708941 -0.812504172
v 0.346546739 -0.323693216 -0.867140651
v 1.50995803e-07 -0.289473683 -1
v -1.50995803e-07 0.236842096 -1
v -0.304837197 0.213757128 -0.911915898
v -0.74617511 0.225214422 -0.443463773
v -0.794234633 0.197297916 -0.351509392
v -0.839143455 0.158917367 -0.270116657
v -0.825393021 0.188708365 -0.169187322
v -0.76154393 0.174173951 0.167623118
v -0.728602171 0.158975899 0.256744087
v -0.663982153 0.169701934 0.307233989
v -0.583070517 0.173280448 0.36139679
v -0.567664266 0.12212804 0.471300483
v -0.412142396 0.0914705694 0.580495477
v -0.269768745 0.0449187532 0.705304623
v -0.159450322 0.0343235359 0.682111919
v 0.0336719565 -0.00654785987 0.710045338
v 0.121201545 -0.0280999057 0.667882502
v 0.508191168 -0.117169507 0.501052618
v 0.77560991 -0.138847366 0.230823427
v 0.786584735 -0.166939542 0.132123381
v 0.824100733 -0.164257929 0.0343990475
v 0.812637866 -0.192269027 -0.0505528823
v 0.765450656 -0.23056832 -0.37024191
v 0.732604682 -0.224465325 -0.476548404
v 0.678199172 -0.267883331 -0.538475633
v 0.637007535 -0.225045487 -0.63893503
v 0.565126836 -0.275850564 -0.698055565
v 0.505418003 -0.239412695 -0.77445358
v 0.362300813 -0.238986298 -0.876323879
v 1.50995803e-07 -0.236842096 -1
v -1.50995803e-07 0.184210539 -1
v -0.087923862 0.162524417 -0.985289872
v -0.532334447 0.158060014 -0.785195172
v -0.691707313 0.162373766 -0.611494601
v -0.753322005 0.152758479 -0.521259785
v -0.806414127 0.13924107 -0.428574473
v -0.842029929 0.127926663 -0.349226475
v -0.821746349 0.151884556 0.0936760977
v -0.509859145 0.0885395259 0.571442723
v -0.191547692 0.022688318 0.788108349
v -0.0764574185 0.0115695745 0.767369747
v 0.129424155 -0.018440485 0.764373899
v 0.226534665 -0.0419180989 0.692455411
v 0.34098193 -0.0627646819 0.654316545
v 0.449375063 -0.0820520744 0.598232508
v 0.807284355 -0.0916437656 0.30313623
v 0.874198973 -0.108510837 0.0756086111
v 0.877515733 -0.121988937 -0.0288683809
v 0.867094338 -0.136293471 -0.150862813
v 0.817491889 -0.187014803 -0.261153668
v 0.829501808 -0.136123776 -0.367013156
v 0.781567276 -0.152516365 -0.463617593
v 0.717526734 -0.163400844 -0.569979131
v 0.655556858 -0.131264955 -0.677301228
v 0.5790838 -0.184185147 -0.729656398
v 0.440646738 -0.213878751 -0.833622038
v 0.395350188 -0.146178097 -0.87859118
v 1.50995803e-07 -0.184210539 -1
v -1.50995803e-07 0.131578952 -1
v -0.317641854 0.116759837 -0.923800528
v -0.465648741 0.138827235 -0.840739787
v -0.598848581 0.0825990215 -0.760618985
v -0.752774119 0.0767757893 -0.5948686
v -0.851017177 0.10762883 0.162825361
v -0.739605308 0.12000718 0.332611322
v -0.664197803 0.124473333 0.401564091
v -0.673695147 0.0780544505 0.505092144
v -0.559623122 0.0455632955 0.668286443
v -0.464288741 0.0648617297 0.64695406
v -0.378610879 0.058184091 0.676526368
v 0.0319810063 -0.00302928756 0.823019147
v 0.571185589 -0.0765133351 0.572515547
v 0.864401698 -0.0875403583 0.193502337
v 0.939268947 -0.0564023368 0.00934558269
v 0.935502231 -0.062287055 -0.0916202962
v 0.793742597 -0.0647321194 -0.541769207
v 0.066880919 -0.182116181 -0.988102257
v 1.50995803e-07 -0.131578952 -1
v -1.50995803e-07 0.0789473653 -1
v -0.05746511 0.072886765 -0.994200349
v -0.663198531 -0.00349423569 -0.745457411
v -0.816489756 0.0679308027 -0.502405107
v -0.873426735 0.0565178506 -0.399328411
v -0.889559865 0.0829443336 -0.295149058
v -0.88990438 0.106876157 -0.193509251
v -0.877379775 0.125226185 -0.0691129714
v -0.890015125 0.0980942175 0.0574869812
v -0.884441018 0.057280995 0.25409922
v -0.799217522 0.115941979 0.253805339
v -0.753978848 0.0756750852 0.427879393
v -0.460796833 0.0370726436 0.736638546
v -0.265539378 0.0160306413 0.856254101
v -0.172878817 0.00948851556 0.887313902
v 0.725264609 -0.0487600192 0.531163096
v 0.821342766 -0.0300951023 0.465765506
v 0.9084813 -0.0284502469 0.298374534
v 0.942332983 -0.0414651372 0.110906012
v 0.993963301 0.00695307925 -0.131864652
v 0.938224971 -0.0452457964 -0.197803289
v 0.882623017 -0.0523109473 -0.381549031
v 0.833077013 -0.0848899111 -0.447792113
v 0.723503411 -0.0657446235 -0.640169144
v 0.665680587 -0.0528963394 -0.713254392
v 0.596092999 -0.0880788714 -0.75949496
v 0.341693312 -0.0640031248 -0.922017872
v 1.50995803e-07 -0.0789473653 -1
v -1.50995803e-07 0.0263157785 -1
v -0.936211348 0.00865454599 -0.32539168
v -1.01427507 -0.0215960871 -0.067573607
v -1.00765586 -0.0121533973 0.0572924092
v -0.914806902 0.0107439319 0.354483426
v -0.77141732 0.0315660052 0.533346355
v -0.682958245 0.0319778547 0.62446326
v -0.552130461 0.011665279 0.78742224
v -0.35150829 0.0289315898 0.789146245
v -0.3579427 0.00362344598 0.913029134
v -0.067876786 0.0043610055 0.88951385
v 0.131843314 -0.00823580008 0.874939203
v 0.23149167 -0.0204334222 0.817528307
v 0.333376557 -0.0349953361 0.758018434
v 0.433793277 -0.0467736758 0.707295477
v 0.538908422 -0.0475533903 0.6699844
v 0.654398978 -0.0365466662 0.631193221
v 0.816917539 -0.00583776925 0.550732672
v 0.907321095 0.000324355206 0.410873502
v 1.00990343 0.0210893657 0.148474097
v 0.985456049 -0.0105832638 -0.047793787
v 0.782456517 0.0124460012 -0.626418412
v 1.50995803e-07 -0.0263157785 -1
v -1.50995803e-07 -0.0263158083 -1
v -0.207813606 -0.0079567302 -0.97505486
v -0.578406572 -0.0028393995 -0.812876284
v -0.986522973 -0.0334833227 -0.269297957
v -1.02370763 -0.0346326977 0.172834426
v -0.970599174 -0.00574512128 0.258532852
v -0.943004429 -0.0325437114 0.459722102
v -0.847275496 0.0237211436 0.44617933
v -0.794093609 -0.0107281506 0.639180243
v -0.732569993 -0.00999254361 0.712694407
v -0.647173107 0.00538727129 0.74054116
v -0.557130396 -0.0159307234 0.89398706
v -0.249676913 -0.000554011029 0.974322557
v -0.0363864489 0.000152321169 1.00157928
v 0.0615285486 0.00128616253 1.03383338
v 0.164701775 0.0052796863 1.04963124
v 0.35296452 0.00804535672 0.979517817
v 0.441647083 0.00320667448 0.907265723
v 0.527750194 -0.00130495313 0.838095844
v 0.715378225 0.00451722601 0.707907975
v 0.897891581 0.0218213722 0.512956977
v 0.989463329 0.0376680978 0.350908339
v 1.00006866 0.0266393609 0.248936594
v 1.07385039 0.0800626799 0.19787854
v 1.04065633 0.0491863675 -0.0617621467
v 0.931110501 0.0356671028 -0.411815107
v 0.839168131 0.0209117047 -0.558165431
v 0.466659546 0.0351432338 -0.889231622
v 0.389706433 0.00426716218 -0.918189287
v 0.308761179 0.0248460621 -0.951299965
v 1.50995803e-07 0.0263158083 -1
v -1.50995803e-07 -0.0789473653 -1
v -0.476980627 -0.0876623616 -0.900363445
v -0.550100207 -0.0709348619 -0.856519401
v -0.729214251 -0.0880040228 -0.73152411
v -0.811178088 -0.0926441252 -0.652210176
v -0.885006309 -0.0952486247 -0.562113047
v -1.00918472 -0.0337112546 -0.179463565
v 1.07748437 0.0783293247 0.0950821415
v 1.07701039 0.0802251548 0.00599878281
v 0.698325634 0.0878242701 -0.75846082
v 0.633848429 0.0998503491 -0.813338995
v 0.386219561 0.0861941725 -0.936612487
v 1.50995803e-07 0.0789473653 -1
v -1.50995803e-07 -0.131578922 -1
v -0.159738466 -0.10148225 -0.991161585
v -0.27577424 -0.095095396 -0.971486807
v -0.383127958 -0.0927534401 -0.939831972
v -0.449811578 -0.175073445 -0.933872163
v -0.715036094 -0.160384536 -0.781183839
v -0.955945849 -0.103071645 -0.460235
v -1.05060625 -0.109874822 -0.259227455
v -1.08264172 -0.0868912488 -0.0072830976
v -1.04003537 -0.0582551248 0.260506213
v -0.572613478 -0.0379761979 0.984432042
v -0.467936099 -0.0197089631 0.977897048
v 0.272500873 0.0126853306 1.06013894
v 0.377019823 0.0256286431 1.08364773
v 0.640782058 0.0498137288 0.969174504
v 0.981057346 0.0813898146 0.577159107
v 1.0639174 0.0956351086 0.392584831
v 1.11322665 0.128432274 -0.0751302466
v 1.05508053 0.0816610232 -0.157994136
v 0.59018743 0.156353697 -0.861678541
v 0.486863375 0.141840056 -0.908986986
v 0.381581426 0.187474251 -0.95882988
v 0.155955434 0.113224693 -0.992464721
v 1.50995803e-07 0.131578922 -1
v -1.50995803e-07 -0.184210539 -1
v -0.74953407 -0.239250302 -0.793620348
v -0.792759717 -0.175497115 -0.724522233
v -0.945625901 -0.166928321 -0.547255754
v -1.02431393 -0.0828469396 0.467701793
v -0.811576009 -0.0452111736 0.742536724
v -0.636810422 -0.0636784434 1.04647064
v -0.340364486 -0.0273429509 1.13493907
v -0.119100101 -0.00881528575 1.16836643
v 0.0920299664 0.00622512726 1.14706159
v 0.722655296 0.0555119999 0.89976871
v 0.935469151 0.0838259906 0.689070225
v 1.13509011 0.133601084 0.252207816
v 1.05851102 0.118996143 -0.258195311
v 0.984367251 0.128774375 -0.44077304
v 0.895645142 0.156555459 -0.602287531
v 0.469972372 0.248034373 -0.943514049
v 0.191495955 0.220116138 -0.998278916
v 1.50995803e-07 0.184210539 -1
v -1.50995803e-07 -0.236842096 -1
v -0.103690878 -0.20214428 -1.00171697
v -0.229292035 -0.191256866 -0.992015898
v -0.421613336 -0.279939175 -0.966999888
v -0.510863841 -0.243561536 -0.928295314
v -1.01470494 -0.203503758 -0.48538208
v -1.11240959 -0.206205249 -0.305181563
v -1.13383448 -0.181749478 -0.190951332
v -1.13880181 -0.132569447 0.149055228
v -1.10128379 -0.124517091 0.415641218
v -0.983810008 -0.108757824 0.701392353
v -0.775988936 -0.0742310956 0.914779842
v -0.2413757 -0.020426672 1.17366517
v 1.14459455 0.15536648 0.417994976
v 1.11451626 0.15833272 -0.186718985
v 1.06303823 0.176207349 -0.360663235
v 0.714184642 0.279352844 -0.835772932
v 0.0868082345 0.269584894 -1.00504935
v 1.50995803e-07 0.236842096 -1
v -1.50995803e-07 -0.289473712 -1
v -0.977585554 -0.24817577 -0.581612408
v -1.07898164 -0.127420172 0.527729154
v 0.0835020691 0.00891489629 1.26245189
v 0.23881793 0.0248440728 1.23179412
v 0.398502737 0.0409696475 1.17999315
v 0.666894674 0.0768378824 1.07566583
v 0.807751954 0.0931104347 0.953075469
v 1.00641561 0.130519047 0.753832459
v 1.08294368 0.142812505 0.603403747
v 1.15058625 0.143950671 0.145805568
v 1.19512618 0.204365298 -0.0298179798
v 1.03692329 0.218979791 -0.468360007
v 1.0142616 0.276783675 -0.561021388
v 0.36672774 0.299913347 -0.983442068
v 0.177893043 0.326865017 -1.00889802
v 1.50995803e-07 0.289473712 -1
v -1.50995803e-07 -0.342105269 -1
v -0.786976635 -0.330556124 -0.811474919
v -1.1588949 -0.277610451 -0.334478736
v -1.20050442 -0.188973144 0.134242237
v -1.21938872 -0.203329191 0.323827475
v -1.14765561 -0.177717954 0.580536067
v -0.961445153 -0.134349406 0.87873733
v -0.508197963 -0.0588954315 1.17885447
v -0.263133019 -0.0317404903 1.28470159
v -0.0970906168 -0.0110198706 1.28859746
v 0.263640106 0.0347156376 1.3219167
v 0.4143309 0.0531164743 1.2625885
v 0.570728004 0.0670554265 1.14605105
v 1.24274147 0.227447197 0.435209841
v 1.22973585 0.214452684 0.14663516
v 1.17487347 0.241748914 -0.224722952
v 1.14023435 0.253676325 -0.330655515
v 1.08714843 0.301336437 -0.488220751
v 0.47484082 0.347965598 -0.966726303
v 1.50995803e-07 0.342105269 -1
v -1.50995803e-07 -0.394736826 -1
v -0.441504538 -0.393912882 -0.986790121
v -1.01863205 -0.339928001 -0.613472939
v -1.17729819 -0.337216407 -0.391264379
v -1.24847889 -0.322672248 -0.220248595
v -1.28322613 -0.267820388 0.10753563
v -1.06254518 -0.156530961 0.746969044
v -0.838544667 -0.111004345 0.99552834
v -0.703751862 -0.0940159857 1.12177134
v -0.369479984 -0.0505707487 1.31419182
v 0.091727443 0.0124945808 1.36684871
v 0.740414858 0.109601997 1.1524657
v 0.899637341 0.138082236 1.02287948
v 0.991825879 0.161053345 0.952229917
v 1.27600408 0.250510126 0.243141443
v 1.30023134 0.278805733 0.14107579
v 1.27144158 0.283447802 -0.0373655111
v 0.841562033 0.380951107 -0.79859674
v 0.651051998 0.336435109 -0.893776774
v 0.481861919 0.436145306 -0.986476004
v 0.171071276 0.430607587 -1.01827621
v 0.0710692555 0.357080221 -1.0079484
v 1.50995803e-07 0.394736826 -1
v -1.50995803e-07 -0.447368443 -1
v -0.0418872423 -0.419533193 -1.00654197
v -0.231030062 -0.453485668 -1.02150953
v -0.542874873 -0.42585367 -0.966515601
v -0.813898206 -0.413637251 -0.834263146
v -0.977677524 -0.389590055 -0.692858517
v -1.27523947 -0.284365892 -0.0243624076
v -1.29155397 -0.260751814 0.313448429
v -1.21758282 -0.226957321 0.62644279
v -1.1333704 -0.201373592 0.795262933
v -1.00889325 -0.1674463 0.949949801
v -0.904500663 -0.147691339 1.06937051
v -0.76559788 -0.123115174 1.19228005
v -0.577756166 -0.0848869532 1.26148498
v -0.451295942 -0.0711227059 1.36752844
v -0.278666168 -0.0417558253 1.39143717
v 0.283184588 0.0437468812 1.40847695
v 0.48132509 0.0715360194 1.31462598
v 1.08762467 0.180782735 0.812714696
v 1.17443395 0.20357798 0.648782074
v 1.24783587 0.319795042 -0.215191722
v 1.13438821 0.373769552 -0.501843572
v 0.925689161 0.384218276 -0.735596299
v 0.676027656 0.422547519 -0.913323104
v 0.393449843 0.409616381 -0.999749601
v 0.062737748 0.446847826 -1.00984418
v 1.50995803e-07 0.447368443 -1
v -1.50995803e-07 -0.5 -1
v -0.131973803 -0.498972684 -1.02356207
v -0.269873142 -0.495894998 -1.02914226
v -0.411134928 -0.490779579 -1.0155108
v -0.552953959 -0.483647436 -0.98182565
v -0.6923455 -0.474527866 -0.927679479
v -0.826216042 -0.463458359 -0.853135705
v -0.951443434 -0.450484425 -0.758750796
v -1.06495941 -0.435659349 -0.645584762
v -1.16383481 -0.419044048 -0.515194952
v -1.24536264 -0.400706798 -0.369616896
v -1.30714142 -0.38072294 -0.211328253
v -1.34714878 -0.359174669 -0.0432003103
v -1.36380768 -0.336150438 0.131564915
v -1.35604262 -0.311744928 0.309507608
v -1.32332134 -0.286058307 0.486994594
v -1.26568377 -0.259196281 0.660306454
v -1.18375444 -0.231269166 0.825735688
v -1.07873762 -0.202391654 0.979681134
v -0.952399373 -0.172682524 1.11874247
v -0.807028353 -0.142263815 1.23981202
v -0.645386338 -0.111260451 1.34015882
v -0.470642835 -0.079799965 1.41750097
v -0.286296397 -0.0480115339 1.47007084
v -0.0960888192 -0.0160257798 1.49666166
v 0.0960888192 0.0160257798 1.49666166
v 0.286296159 0.0480114929 1.47007084
v 0.470642507 0.0797999129 1.41750097
v 0.64538604 0.111260399 1.34015882
v 0.807028353 0.142263815 1.23981202
v 0.952399373 0.172682524 1.11874247
v 1.07873762 0.202391654 0.979681134
v 1.18375421 0.231269106 0.825735986
v 1.26568353 0.259196222 0.660306871
v 1.32332122 0.286058277 0.486994892
v 1.3560425 0.311744839 0.309508264
v 1.36380768 0.336150438 0.131564915
v 1.34714878 0.359174669 -0.0432003103
v 1.30714142 0.38072294 -0.211328253
v 1.24536264 0.400706768 -0.369616747
v 1.16383481 0.419044018 -0.515194833
v 1.06495988 0.435659289 -0.645584285
v 0.951443434 0.450484425 -0.758750796
v 0.826216042 0.463458359 -0.853135705
v 0.6923455 0.474527866 -0.927679479
v 0.552954257 0.483647406 -0.98182559
v 0.411135167 0.490779549 -1.01551068
v 0.26987341 0.495894998 -1.02914238
v 0.131973803 0.498972684 -1.02356207
v 1.50995803e-07 0.5 -1
v 0 0 1.49666166
v -0.191192612 -0.0320186578 1.48336625
v 0.191192493 0.0320186354 1.48336625
v -0.378469616 -0.0639057457 1.44378591
v 0.378469348 0.063905701 1.44378591
v 0.558014274 0.0955301523 1.37882996
v -0.558014572 -0.0955302119 1.37882996
v 0.726207197 0.126762107 1.28998542
v -0.726207376 -0.126762137 1.28998542
v -0.879713893 -0.157473177 1.17927718
v 0.879713893 0.157473177 1.17927718
v 0.018793622 0.00298909959 1.418764
v -0.183336362 -0.0246621016 1.35242426
v 0.18258208 0.0266255289 1.39610815
v -0.479550958 -0.0673010647 1.28315139
v 0.583854318 0.0862773955 1.25849009
v -1.01556849 -0.187537089 1.04921174
v 1.01556849 0.187537089 1.04921174
v 0.692348778 0.110982366 1.24256074
v -0.805080891 -0.119003899 1.09607053
v -1.13124609 -0.216830403 0.902708411
v 1.13124585 0.216830373 0.90270853
v -1.22471905 -0.245232731 0.743021071
v 1.22471881 0.245232671 0.743021429
v -1.05296254 -0.17263715 0.864132226
v 1.05661631 0.180929884 0.90011704
v -0.670829892 -0.102360412 1.22621608
v 1.29450238 0.272627234 0.573650897
v -1.2945025 -0.272627294 0.573650539
v -0.000348476227 0.000105177925 1.32768953
v 0.374885052 0.0550155379 1.34557438
v 1.24402332 0.237352073 0.555243492
v 0.651143909 0.0897920802 1.17444634
v -1.33968198 -0.298901618 0.398251116
v 1.33968186 0.298901558 0.398251593
v 0.84335947 0.137223303 1.12786341
v -1.26532102 -0.242247611 0.408801317
v -0.934287071 -0.142288581 0.976674676
v 0.993366957 0.144159466 0.853197694
v 1.35992503 0.323947638 0.22053659
v -1.35992515 -0.323947668 0.220536262
v 1.28798008 0.328746438 -0.127121195
v -1.31738055 -0.287303865 0.217530355
v -1.14245701 -0.19052048 0.688250184
v 1.15171134 0.204540014 0.747150719
v -0.180829898 -0.0192117281 1.25358379
v 0.169681504 0.0204936527 1.29935777
v 0.332414478 0.039001219 1.25004876
v -1.22716153 -0.221745387 0.512257874
v 1.16049993 0.179742843 0.526177824
v -1.35547829 -0.347662568 0.0441823006
v 1.35547829 0.347662568 0.0441823006
v 0.487381727 0.0603438877 1.21241522
v 1.31517816 0.308191121 0.0487439483
v 0.780502677 0.104527526 1.05381143
v -1.18839371 -0.185887903 0.417819768
v 0.903673112 0.116862208 0.90412724
v -1.28741133 -0.327661186 -0.126513809
v -1.3271451 -0.369948804 -0.127264276
v 1.3271451 0.369948804 -0.127264276
v -0.993219972 -0.132120654 0.795098722
v -1.24706197 -0.226491243 0.222763717
v -1.06651521 -0.139329195 0.636594117
v -1.21543849 -0.330841005 -0.309554905
v 1.20859456 0.321883917 -0.306933552
v -1.14913392 -0.166830987 0.490909129
v -1.27625203 -0.390714884 -0.290472567
v 1.27625203 0.390714854 -0.290472507
v 0.157811716 0.01516103 1.21695065
v -0.324900627 -0.0348675512 1.22269535
v -0.40992257 -0.045378793 1.20573306
v -1.15386677 -0.154144004 0.339729518
v 1.28044963 0.252473861 0.340261489
v 1.2246747 0.261837959 -0.127495676
v -1.13367701 -0.349003941 -0.474613786
v -0.737259865 -0.0840677544 1.01751637
v 0.72382164 0.0756828189 0.990344167
v -0.872502804 -0.103382699 0.897725701
v 1.20046842 0.187167123 0.223072678
v 1.20459867 0.409875393 -0.44240579
v -1.20459867 -0.409875423 -0.442405939
v -1.09323907 -0.376893193 -0.559393883
v 1.25146496 0.245531812 0.0565546714
v 1.08733594 0.163079411 0.705368102
v 1.16047764 0.330373049 -0.407737672
v -1.2154125 -0.252812415 -0.131660804
v -1.11439705 -0.427351713 -0.580389857
v 1.11439729 0.427351654 -0.580389559
v -0.00994015764 -0.00067058776 1.21666861
v 0.99199301 0.352199644 -0.650235772
v 0.475315481 0.0437472351 1.11264634
v -0.606006086 -0.0749768242 1.15142596
v 1.06888235 0.360368758 -0.572067499
v -0.818391442 -0.0694699809 0.831849754
v -1.14714348 -0.144862965 0.0581974536
v 1.19316363 0.188127354 0.0707952604
v 0.912560642 0.0980323926 0.795656323
v -0.980618596 -0.0802829713 0.573596895
v 1.01894236 0.119774133 0.665848017
v 1.0082016 0.443071842 -0.702167511
v -1.00820136 -0.443071902 -0.702167749
v -0.932363153 -0.300234795 -0.672119975
v 1.16550052 0.197987765 -0.12907058
v -1.05817747 -0.294853657 -0.522626281
v 1.12240505 0.130856812 0.336127371
v 1.11123335 0.188928246 -0.272600383
v 1.20124388 0.189770892 0.321178287
v -0.730029762 -0.394920588 -0.874982595
v 0.751737595 0.380100071 -0.856017411
v -0.0185217466 -0.000666881911 1.10567725
v -0.186568677 -0.00780407339 1.07373774
v 0.205023915 0.0148721598 1.14401245
v 0.304063678 0.0263690446 1.15828109
v -1.10040057 -0.259735346 -0.413983464
v 0.574290931 0.40021497 -0.946843922
v -0.436591357 -0.035443183 1.10015237
v -0.888829708 -0.456971407 -0.805943251
v 0.888829708 0.456971407 -0.805943251
v 1.09826553 0.255358666 -0.411620349
v 1.13521016 0.136408612 0.0353482738
v -0.538125753 -0.048043225 1.07330501
v -1.18187487 -0.259938747 -0.249421865
v -0.662237406 -0.0460765287 0.92961812
v 0.814733446 0.0721147507 0.846758604
v -0.905041575 -0.0922413841 0.787935793
v 1.07053459 0.117622368 0.495873064
v -1.09511578 -0.106537297 0.30387941
v -0.759280801 -0.468993127 -0.890407562
v 0.759280801 0.468993127 -0.890407562
v -1.03817904 -0.15714404 -0.379690677
v -1.09265876 -0.0949828997 0.206062213
v -0.693172514 -0.303077489 -0.857974291
v 0.774372339 0.231506154 -0.769778371
v 0.962334454 0.184875101 -0.540163636
v -1.16492283 -0.156956747 0.240031198
v -1.07575607 -0.100279011 -0.12869978
v -0.88539654 -0.191066489 -0.640836
v 0.559224248 0.0473538116 1.04233205
v 0.92799139 0.250839174 -0.638788283
v 0.557729959 0.298298478 -0.923038125
v -0.725509286 -0.0357523151 0.815297902
v -0.891723216 -0.0583751537 0.666673899
v -0.622649729 -0.479087651 -0.954752564
v 0.622649908 0.479087651 -0.954752564
v 0.985601068 0.0581770092 0.4568443
v -0.330492109 -0.403305054 -1.00798023
v -0.596859217 -0.270795435 -0.898203909
v -0.524836898 -0.33202976 -0.946878195
v 0.625452936 0.243334413 -0.873574555
v 0.790078998 0.311968565 -0.800590992
v -0.300638229 -0.290763855 -0.994396985
v 0.754332364 0.152327329 -0.744542897
v -0.555981994 -0.163565367 -0.883399844
v 0.54668355 0.217066973 -0.903625906
v 0.482044697 0.487213492 -0.998668134
v -0.482044458 -0.487213492 -0.998668194
v -0.659217179 -0.205133885 -0.839020908
v -0.0992103219 -0.00327760587 1.06634808
v -0.213115886 -0.361525953 -1.0113095
v -0.274549454 -0.0140243759 1.07733607
v -0.354554027 -0.0153669324 1.02968121
v 0.458286345 0.0246502999 1.01089156
v 0.542792439 0.0238909312 0.939245343
v 0.62801373 0.0243404303 0.86677748
v 0.26336664 0.292679757 -0.999085188
v 0.719263017 0.0314156525 0.800255299
v -0.872009873 -0.0198105834 0.553519666
v 0.870376945 0.0361547433 0.61410439
v -1.08335721 -0.0829942301 0.106205367
v 0.685437083 0.177906409 -0.809703946
v 0.99910754 0.0375592895 -0.231987447
v -0.629897296 -0.382184416 -0.920145452
v -0.984329641 -0.0684766769 -0.350242317
v 0.99782294 0.0800687075 -0.335706681
v -0.34050405 -0.493337274 -1.02232647
v 0.340504289 0.493337274 -1.02232647
v -0.344143122 -0.186939657 -0.96926707
v 1.06503165 0.0828582495 0.296556592
v 0.29653126 0.22526902 -0.985394001
v -0.188907951 -0.27363497 -1.00434971
v -0.637326896 -0.0983635783 -0.80893898
v 0.55815345 0.0687430203 -0.849106371
v -0.0631667525 0.434526116 -0.981950402
v 0.0808782205 0.187665701 -1.00026309
v 0.277785242 0.128068984 -0.974394381
v 0.218041614 0.0435649566 -0.975789726
v -0.0461613052 0.259489387 -0.99094975
v -0.0504650362 -0.1047801 -0.998802841
v 0.0500678271 0.102923274 -0.998080492
v -0.325318933 0.00639734883 -0.940458
v -0.421027541 -0.0216538683 -0.908407271
v -0.495037943 -0.00600097282 -0.866951764
v -0.744420409 -0.0042878869 -0.665733814
v -0.92770648 -0.0236515775 -0.40459621
v -1.0136255 -0.0558326431 0.360358894
v -0.458017647 0.00837342814 0.849901736
v -0.135444179 0.000720073702 0.98219645
v 0.126061201 -0.000946701155 0.967133284
v 0.230948746 -0.00231423741 0.945453823
v 0.430478662 -0.0199239478 0.805902064
v 0.508991182 -0.0253937077 0.755038381
v 0.767508686 -0.00212361151 0.627214491
v 0.940292895 -0.00861291215 -0.305867076
v 0.772888243 0.0896204859 -0.690369368
v 0.200923607 0.497433841 -1.02635217
v -0.200923473 -0.497433841 -1.02635217
v -0.243142486 0.0718031898 -0.956771672
v 0.819845617 0.0449392796 0.726170063
v -0.149270996 0.0774433017 -0.97905004
v 0.438950241 -0.0568329692 -0.877558053
v -0.145205081 0.252278864 -0.966407895
v 0.171551004 -0.227689326 -0.958916962
v 0.532974303 -0.028371105 -0.829838574
v 0.237099662 -0.0450325161 -0.956869781
v 0.0690912753 -0.288906246 -0.984919727
v 0.172869235 -0.337294996 -0.9482131
v 0.629834592 0.0133730108 -0.7769925
v -0.420299947 0.0691510513 -0.885576427
v 0.713855684 0.0129761491 -0.702693224
v -0.817217648 -0.00951768085 -0.578333795
v 0.865442872 -0.0109867668 -0.47803691
v -0.945104837 0.0305281505 -0.231507912
v -0.949395478 0.0441443399 -0.125758141
v -0.949289978 0.0476286113 -0.0140043162
v -0.065986976 -0.499486327 -1.01178098
v 0.065986976 0.499486327 -1.01178098
v 1.01130962 0.0161099378 0.0371660963
v 0.269470721 -0.28105408 -0.915689051
v -0.940547585 0.0376745164 0.146823406
v -0.26566565 0.401726365 -0.899349391
v -0.392149746 0.171171755 -0.875846386
v -0.679154873 0.0834535137 -0.681248724
v 0.945855319 -0.0229975898 0.200145081
v -0.516497135 0.0740265995 -0.827157855
v 0.50033623 -0.137712047 -0.814624608
v -0.824004829 0.068532221 0.345334023
v 0.837207496 -0.0489581265 0.377639771
v -0.611171007 0.17993179 -0.699182689
v -0.377144367 0.266721576 -0.860607207
v 0.880678475 -0.0957949534 -0.276703507
v 0.503402948 -0.315524608 -0.744606137
v -0.885870695 -0.371646255 -0.760324776
v -0.758721411 0.27301842 -0.16434741
v -0.693673611 0.237902164 -0.541004956
v -0.373960018 -0.341592014 -0.99095577
v 0.176605865 -0.426135987 -0.939459801
v 0.0412002653 -0.00110028067 0.931701899
v -0.83113879 0.161584049 0.0172670931
v -0.881195307 -0.0166687928 -0.485373229
v 0.276776671 -0.393671989 -0.894004822
v 0.839676857 0.0895845816 -0.615640998
v -1.15666485 -0.171150357 -0.0613038018
v -0.130054861 -0.426040143 -1.0149436
v -0.598963916 0.0740186498 0.568456471
v 0.677679121 -0.370164007 -0.389223039
v -0.629044533 -0.0153606404 0.833610833
v 0.754978597 -0.275996089 -0.251538277
v 0.86185652 0.292813838 -0.733378708
v 0.712407112 -0.144865036 0.305487067
v 0.283439279 0.392340928 -1.01095724
v -0.0894984379 -0.00901208911 -0.993187606
v 0.834089398 0.179276884 -0.686679423
v 0.646563113 -0.140000254 0.378397584
v 0.927873135 0.319258451 -0.690532506
v 0.627324641 -0.0998451933 0.478805006
v 0.644982934 -0.0660780072 0.553580582
v 0.613480091 -0.00810496137 0.752970219
v -0.840689301 -0.266800374 -0.735806227
v 0.058263123 -0.0891287103 -0.992947221
v 0.278612584 -0.160182074 -0.929653704
v -0.947917819 0.0432309881 0.0621319637
v 0.336867601 -0.0114228791 0.869018078
v -0.707424641 0.340194285 -0.161713794
v -0.450568616 0.320832044 -0.791853547
v -1.21383846 -0.213791743 0.0278550535
v -0.412356168 0.412803471 -0.79572022
v -1.21546865 -0.230373949 -0.047247909
v -0.21204634 0.164615884 -0.954090655
v 0.904012084 0.0853993893 -0.521906316
v -0.637840092 0.402285129 -0.469386607
v -0.269577384 0.0289614294 0.784891129
v -0.127141416 0.0127353333 0.833168089
v -0.715558767 0.30992949 -0.0826311707
v 0.552005947 -0.155809224 0.405591309
v 0.111128435 0.000797236222 -0.987236619
v 0.739545405 -0.0872833058 0.406619281
v -0.0785432309 -0.0121002495 1.40912151
v 0.15558435 -0.11892952 -0.971922994
v -0.0856135115 -0.318950415 -1.00552154
v -0.786379397 0.221949071 -0.0570325777
g 
f 2 62 3
f 62 2 680
f 727 63 4
f 5 52 6
f 6 53 7
f 53 6 52
f 7 54 8
f 54 7 53
f 9 8 777
f 9 65 10
f 10 86 11
f 86 10 65
f 12 11 770
f 12 780 13
f 13 55 14
f 55 13 780
f 15 14 88
f 15 66 16
f 17 16 89
f 18 17 90
f 19 18 91
f 20 92 21
f 21 68 22
f 68 21 92
f 23 22 68
f 23 93 24
f 25 24 69
f 26 70 27
f 28 27 94
f 28 71 29
f 29 72 30
f 72 29 71
f 30 72 31
f 31 95 32
f 95 31 72
f 32 56 33
f 56 32 95
f 34 33 56
f 35 96 73
f 36 35 73
f 36 74 37
f 37 57 38
f 57 37 74
f 39 38 57
f 40 75 76
f 41 40 76
f 42 100 43
f 100 42 752
f 43 58 44
f 58 43 100
f 45 44 58
f 45 59 46
f 102 49 743
f 102 60 50
f 80 680 61
f 771 83 52
f 53 83 108
f 83 53 52
f 53 64 54
f 64 53 108
f 84 9 777
f 84 54 64
f 65 9 84
f 770 11 86
f 780 12 770
f 55 88 14
f 88 55 87
f 66 15 88
f 66 89 16
f 90 17 89
f 90 91 18
f 19 67 20
f 67 19 91
f 92 20 67
f 93 23 68
f 93 69 24
f 25 69 26
f 70 26 69
f 70 94 27
f 71 28 94
f 95 781 56
f 56 96 34
f 96 35 34
f 73 97 36
f 74 36 97
f 74 98 57
f 57 75 39
f 75 57 98
f 75 40 39
f 76 99 41
f 100 123 58
f 101 45 58
f 101 58 123
f 59 738 124
f 101 59 45
f 77 59 124
f 78 60 102
f 81 62 80
f 727 82 63
f 82 727 81
f 108 109 64
f 84 64 741
f 84 85 65
f 86 65 85
f 88 111 66
f 89 66 111
f 91 112 67
f 92 67 112
f 92 113 68
f 114 68 113
f 93 68 114
f 93 115 69
f 70 69 115
f 94 70 142
f 94 116 71
f 71 117 72
f 117 71 116
f 118 72 117
f 95 72 118
f 96 119 73
f 97 73 119
f 97 120 74
f 98 74 120
f 98 121 75
f 75 754 76
f 754 75 121
f 99 76 754
f 99 122 752
f 100 752 122
f 738 59 101
f 124 125 77
f 747 77 125
f 684 708 80
f 708 105 81
f 105 128 82
f 771 736 106
f 736 771 63
f 771 107 83
f 107 771 106
f 108 83 107
f 741 129 84
f 130 85 129
f 85 110 86
f 110 85 130
f 740 86 110
f 787 745 87
f 87 133 88
f 133 87 163
f 111 88 133
f 111 135 89
f 89 136 90
f 136 89 135
f 136 137 91
f 112 91 137
f 112 138 92
f 113 92 138
f 114 140 93
f 115 93 140
f 115 141 70
f 142 70 141
f 142 168 94
f 116 94 168
f 118 143 95
f 781 95 143
f 119 96 756
f 119 145 97
f 120 97 145
f 120 147 98
f 121 98 147
f 122 99 148
f 122 150 100
f 123 100 150
f 123 152 101
f 124 738 153
f 725 713 747
f 713 712 102
f 126 103 712
f 684 104 127
f 106 728 186
f 106 158 107
f 158 106 186
f 107 735 108
f 735 107 158
f 109 735 159
f 735 109 108
f 129 741 160
f 130 131 110
f 110 132 740
f 132 110 131
f 787 740 132
f 133 134 111
f 135 111 134
f 137 164 112
f 138 112 164
f 138 195 113
f 113 139 114
f 139 113 195
f 140 114 139
f 140 166 115
f 141 115 166
f 168 169 116
f 116 169 117
f 117 170 118
f 170 117 169
f 143 118 170
f 143 762 781
f 756 144 119
f 145 119 144
f 145 146 120
f 147 120 146
f 147 174 121
f 121 175 754
f 175 121 174
f 148 149 122
f 150 122 149
f 150 151 123
f 152 123 151
f 152 153 738
f 124 154 125
f 154 124 181
f 155 126 712
f 157 684 156
f 708 775 105
f 185 128 775
f 186 728 715
f 158 186 731
f 129 161 130
f 161 129 160
f 130 162 131
f 162 130 161
f 131 210 132
f 210 131 209
f 211 132 210
f 163 189 133
f 133 214 134
f 214 133 189
f 134 190 135
f 190 134 214
f 135 191 136
f 191 135 190
f 164 137 751
f 164 194 138
f 195 138 194
f 139 240 778
f 139 165 140
f 165 139 778
f 166 140 165
f 166 196 141
f 141 167 142
f 167 141 196
f 168 142 167
f 170 169 246
f 170 197 143
f 762 143 197
f 756 171 144
f 171 756 783
f 144 198 145
f 198 144 171
f 145 172 146
f 172 145 198
f 146 173 147
f 173 146 172
f 174 147 173
f 175 176 148
f 148 177 149
f 177 148 176
f 149 178 150
f 178 149 177
f 179 151 178
f 151 180 152
f 180 151 179
f 153 732 181
f 180 153 152
f 181 182 154
f 767 709 725
f 709 202 712
f 202 709 785
f 202 183 155
f 157 184 205
f 184 157 156
f 706 704 775
f 158 187 735
f 729 188 159
f 188 207 160
f 208 161 207
f 208 209 162
f 209 131 162
f 212 163 745
f 189 163 212
f 751 193 164
f 193 751 238
f 194 164 193
f 779 242 166
f 242 779 218
f 196 166 242
f 196 243 167
f 167 244 168
f 244 167 243
f 168 245 169
f 245 168 244
f 246 169 245
f 246 247 170
f 197 170 247
f 734 221 171
f 198 171 221
f 198 222 172
f 172 199 173
f 199 172 222
f 173 200 174
f 200 173 199
f 225 176 737
f 176 226 177
f 226 176 225
f 177 201 178
f 201 177 226
f 179 178 227
f 179 229 180
f 732 182 181
f 230 182 707
f 205 184 204
f 687 185 704
f 715 731 186
f 257 731 689
f 206 187 257
f 729 690 188
f 690 729 206
f 207 188 717
f 208 207 746
f 210 209 719
f 189 726 213
f 214 189 213
f 190 733 215
f 215 192 191
f 193 238 265
f 193 216 194
f 216 240 195
f 242 744 196
f 247 248 197
f 219 220 783
f 222 198 730
f 199 724 252
f 200 252 223
f 252 200 199
f 223 224 200
f 225 737 700
f 226 225 718
f 227 228 179
f 229 179 228
f 203 766 231
f 766 203 202
f 208 233 209
f 719 720 210
f 292 719 258
f 720 721 211
f 768 726 212
f 235 721 234
f 213 733 214
f 236 213 260
f 733 262 215
f 262 733 236
f 215 237 192
f 237 263 238
f 265 238 264
f 193 239 216
f 240 216 693
f 240 241 217
f 217 267 218
f 242 218 694
f 219 699 249
f 220 249 275
f 249 220 219
f 250 221 734
f 250 220 275
f 277 221 276
f 730 251 222
f 251 730 277
f 225 280 718
f 718 201 226
f 201 253 227
f 253 201 281
f 714 710 229
f 710 707 732
f 282 710 679
f 283 707 282
f 284 230 283
f 766 254 231
f 254 766 782
f 688 689 715
f 257 689 288
f 233 670 258
f 670 233 691
f 260 259 308
f 692 261 236
f 263 237 664
f 263 264 238
f 266 239 753
f 693 241 240
f 310 693 266
f 267 241 658
f 694 268 242
f 268 694 655
f 269 744 268
f 695 696 243
f 270 695 269
f 271 696 311
f 769 697 245
f 272 769 271
f 697 698 246
f 273 697 272
f 698 764 247
f 764 698 273
f 248 274 699
f 275 249 665
f 276 250 642
f 276 221 250
f 278 251 277
f 724 279 252
f 279 724 294
f 701 295 716
f 285 254 782
f 685 300 758
f 300 301 256
f 678 289 206
f 290 690 289
f 291 717 290
f 259 666 628
f 628 308 259
f 263 328 264
f 620 309 266
f 607 332 269
f 311 312 271
f 663 705 274
f 642 315 276
f 293 294 724
f 279 317 223
f 317 279 316
f 748 701 253
f 296 714 295
f 282 297 283
f 297 282 319
f 682 683 284
f 683 321 782
f 321 683 682
f 686 298 285
f 302 301 674
f 302 303 287
f 678 304 289
f 307 234 633
f 327 261 692
f 664 261 595
f 310 309 618
f 312 588 659
f 635 313 660
f 333 661 313
f 315 642 623
f 278 371 293
f 617 316 294
f 338 776 631
f 701 649 295
f 667 318 296
f 318 319 679
f 319 320 297
f 682 297 320
f 343 685 323
f 300 344 301
f 344 300 343
f 654 324 304
f 325 304 324
f 326 347 305
f 306 349 633
f 595 639 664
f 620 329 309
f 329 620 573
f 613 330 658
f 354 657 330
f 608 331 655
f 610 366 312
f 635 367 313
f 705 334 665
f 334 705 594
f 602 335 675
f 617 372 316
f 316 356 317
f 336 356 603
f 667 646 318
f 651 339 319
f 339 375 320
f 682 340 321
f 340 682 676
f 686 341 322
f 341 686 681
f 343 323 342
f 345 674 648
f 324 765 325
f 634 362 326
f 627 348 306
f 348 627 611
f 749 633 349
f 592 350 666
f 624 351 692
f 351 624 569
f 363 327 351
f 595 352 639
f 639 622 328
f 573 406 329
f 589 385 618
f 613 568 330
f 387 331 543
f 586 364 332
f 566 365 609
f 366 610 545
f 367 635 390
f 574 368 333
f 368 554 621
f 594 369 334
f 596 370 314
f 370 596 581
f 602 604 335
f 372 617 593
f 603 357 336
f 373 337 357
f 630 358 667
f 662 340 676
f 681 360 341
f 360 681 359
f 342 786 343
f 786 342 361
f 345 645 346
f 362 601 347
f 611 380 348
f 348 619 349
f 749 349 583
f 592 381 350
f 381 592 772
f 569 553 351
f 560 404 352
f 558 384 622
f 575 405 353
f 407 568 512
f 567 386 354
f 365 566 544
f 368 574 552
f 369 594 536
f 355 547 391
f 547 355 623
f 372 593 580
f 600 393 356
f 603 394 357
f 394 603 393
f 373 616 395
f 630 647 358
f 358 416 646
f 637 396 339
f 375 339 396
f 662 376 340
f 376 419 359
f 742 399 345
f 629 379 324
f 599 400 362
f 563 383 363
f 404 560 541
f 406 573 517
f 527 408 364
f 544 388 365
f 545 389 366
f 550 390 588
f 367 530 409
f 530 367 390
f 552 410 368
f 410 552 533
f 536 439 369
f 581 440 370
f 570 412 604
f 576 392 371
f 392 576 412
f 580 414 372
f 394 393 562
f 582 395 616
f 416 358 606
f 445 396 417
f 378 422 786
f 422 378 398
f 399 424 645
f 605 425 379
f 379 739 765
f 572 401 611
f 561 402 619
f 772 403 381
f 559 428 382
f 546 553 534
f 546 429 383
f 384 522 431
f 522 384 558
f 589 434 385
f 407 436 386
f 510 784 387
f 388 511 437
f 528 438 389
f 513 390 550
f 547 529 391
f 571 441 393
f 441 571 539
f 582 442 395
f 612 417 396
f 419 420 397
f 643 451 399
f 451 643 672
f 426 456 400
f 457 579 584
f 401 578 458
f 402 564 459
f 564 402 561
f 461 403 548
f 534 463 546
f 463 534 531
f 429 546 526
f 541 430 404
f 430 541 520
f 535 432 405
f 517 433 406
f 433 517 507
f 434 589 524
f 512 435 407
f 435 512 504
f 436 407 501
f 509 473 408
f 516 477 409
f 477 516 505
f 533 478 410
f 478 533 508
f 411 515 479
f 515 411 410
f 413 537 484
f 551 485 414
f 606 444 416
f 444 606 626
f 612 493 417
f 757 495 418
f 495 757 673
f 418 446 419
f 446 418 496
f 446 447 420
f 722 750 422
f 450 423 703
f 653 452 424
f 640 453 669
f 625 454 425
f 614 455 739
f 555 460 427
f 460 555 556
f 538 462 540
f 526 464 429
f 520 465 430
f 518 466 522
f 514 467 432
f 507 468 433
f 506 469 524
f 504 470 435
f 501 471 436
f 500 474 437
f 502 475 528
f 439 519 480
f 519 439 523
f 440 521 481
f 521 440 542
f 529 525 482
f 570 532 483
f 532 570 391
f 537 413 412
f 539 486 441
f 486 539 557
f 565 487 562
f 442 577 488
f 577 442 582
f 585 489 590
f 597 490 443
f 626 492 444
f 493 612 641
f 494 417 652
f 702 496 418
f 446 497 447
f 497 446 723
f 473 509 498
f 472 498 784
f 471 499 436
f 437 511 500
f 470 501 435
f 438 528 475
f 474 502 437
f 469 504 434
f 476 513 503
f 475 503 438
f 434 524 469
f 468 506 433
f 467 507 432
f 432 535 514
f 466 514 431
f 431 522 466
f 465 518 430
f 408 527 509
f 511 388 544
f 473 511 408
f 464 520 429
f 480 542 439
f 406 524 589
f 409 530 516
f 476 516 513
f 481 529 440
f 432 517 405
f 477 533 409
f 523 479 519
f 498 509 784
f 411 554 410
f 499 510 436
f 511 473 500
f 407 435 501
f 502 528 437
f 462 531 428
f 482 391 529
f 542 480 521
f 512 434 504
f 503 513 438
f 430 522 404
f 439 536 523
f 479 523 411
f 516 476 505
f 524 406 433
f 506 524 433
f 517 432 507
f 533 477 508
f 428 540 462
f 529 481 525
f 412 483 537
f 784 527 387
f 387 543 510
f 436 510 386
f 389 545 528
f 437 528 388
f 434 512 385
f 438 550 389
f 514 535 431
f 410 478 515
f 513 530 390
f 391 482 532
f 460 548 427
f 485 551 549
f 518 522 430
f 405 575 535
f 431 535 384
f 509 527 784
f 511 544 408
f 541 429 520
f 483 412 570
f 550 438 513
f 428 559 540
f 461 540 403
f 516 530 513
f 429 541 383
f 440 581 542
f 546 463 526
f 408 544 364
f 386 567 407
f 388 545 365
f 383 563 546
f 546 563 553
f 389 550 366
f 414 580 551
f 484 551 413
f 486 565 441
f 534 428 531
f 409 552 367
f 382 534 553
f 558 404 522
f 523 536 411
f 410 554 368
f 427 583 555
f 459 555 402
f 485 539 414
f 555 459 556
f 539 485 557
f 538 540 461
f 403 559 381
f 411 536 554
f 578 401 572
f 392 412 413
f 487 582 562
f 510 543 386
f 528 545 388
f 383 560 363
f 439 581 369
f 547 440 529
f 458 561 401
f 413 580 392
f 403 427 548
f 549 551 484
f 440 547 370
f 573 405 517
f 552 409 533
f 364 586 527
f 386 543 354
f 567 330 568
f 407 567 568
f 488 585 442
f 534 382 428
f 535 575 384
f 402 583 619
f 393 600 571
f 457 572 579
f 405 573 353
f 353 591 575
f 384 575 622
f 382 632 559
f 412 576 604
f 540 559 403
f 404 558 352
f 582 487 577
f 401 561 380
f 560 383 541
f 542 581 439
f 441 562 393
f 455 598 426
f 443 587 597
f 456 579 400
f 352 595 560
f 580 593 392
f 392 593 371
f 403 772 427
f 551 580 413
f 561 458 564
f 562 441 565
f 566 364 544
f 363 351 563
f 553 563 351
f 550 588 366
f 568 385 512
f 380 611 401
f 579 572 601
f 562 582 394
f 372 571 600
f 382 569 632
f 569 382 553
f 391 604 355
f 426 739 455
f 454 614 425
f 574 367 552
f 332 607 586
f 387 586 331
f 364 566 332
f 491 415 615
f 490 615 443
f 426 400 599
f 354 330 567
f 555 583 402
f 571 414 539
f 365 610 609
f 489 587 590
f 385 613 618
f 406 589 329
f 381 632 350
f 578 572 457
f 442 590 395
f 594 554 536
f 353 638 591
f 622 591 328
f 621 333 368
f 593 617 371
f 554 594 621
f 363 595 327
f 425 605 625
f 453 605 669
f 369 596 334
f 579 456 584
f 585 590 442
f 623 370 547
f 351 327 692
f 370 623 314
f 400 601 362
f 632 624 628
f 395 374 373
f 355 315 623
f 527 586 387
f 331 354 543
f 571 372 414
f 393 603 356
f 610 365 545
f 570 604 391
f 613 385 568
f 350 628 666
f 635 588 390
f 604 576 335
f 491 606 415
f 443 415 755
f 331 607 655
f 354 608 657
f 311 270 609
f 669 424 640
f 452 640 424
f 330 657 658
f 312 311 610
f 609 610 311
f 601 611 347
f 444 641 612
f 559 632 381
f 658 310 613
f 618 613 310
f 373 357 616
f 394 616 357
f 366 588 312
f 597 587 489
f 598 456 426
f 749 307 633
f 590 587 374
f 329 618 309
f 348 380 619
f 561 619 380
f 575 591 622
f 353 620 638
f 333 313 574
f 367 574 313
f 601 400 579
f 705 663 621
f 639 352 622
f 558 622 352
f 356 316 600
f 379 629 605
f 415 606 647
f 560 595 363
f 596 369 581
f 334 314 665
f 379 765 324
f 444 612 416
f 572 611 601
f 349 619 583
f 362 634 599
f 614 739 425
f 615 415 443
f 628 624 308
f 374 636 631
f 315 355 602
f 357 337 671
f 624 632 569
f 604 602 355
f 371 278 335
f 324 654 629
f 669 629 644
f 645 424 669
f 396 637 612
f 307 749 592
f 374 395 590
f 347 326 362
f 586 607 331
f 424 399 653
f 451 653 399
f 608 354 331
f 609 332 566
f 373 631 337
f 628 350 632
f 618 329 589
f 588 635 659
f 379 425 739
f 450 672 423
f 606 491 626
f 625 605 453
f 292 306 633
f 759 338 636
f 631 636 338
f 313 661 660
f 336 317 356
f 494 673 445
f 616 394 582
f 591 638 328
f 644 654 650
f 333 663 661
f 328 263 639
f 705 621 594
f 641 444 492
f 306 670 627
f 347 627 305
f 667 649 630
f 314 334 596
f 314 275 665
f 399 742 643
f 423 643 656
f 374 631 373
f 645 644 346
f 399 645 345
f 339 651 637
f 416 637 646
f 307 235 234
f 358 646 667
f 294 293 617
f 371 617 293
f 415 647 755
f 656 648 677
f 701 748 759
f 750 722 449
f 633 234 292
f 576 371 335
f 346 303 345
f 306 258 670
f 636 374 587
f 759 649 701
f 627 347 611
f 652 417 493
f 376 662 757
f 336 671 668
f 419 376 418
f 304 678 654
f 634 326 291
f 609 270 332
f 280 671 337
f 358 647 606
f 605 629 669
f 345 303 674
f 269 268 607
f 655 607 268
f 655 694 608
f 332 270 269
f 608 267 657
f 658 657 267
f 272 271 659
f 312 659 271
f 310 266 309
f 677 648 344
f 418 376 757
f 273 272 660
f 659 660 272
f 291 290 634
f 325 634 290
f 753 620 266
f 638 620 753
f 600 316 372
f 764 273 661
f 660 661 273
f 265 264 638
f 328 638 264
f 630 755 647
f 650 303 346
f 274 764 663
f 661 663 764
f 705 699 274
f 319 318 651
f 646 651 318
f 664 237 262
f 261 664 262
f 621 663 333
f 665 249 699
f 705 665 699
f 290 289 325
f 304 325 289
f 445 417 494
f 642 250 275
f 275 314 642
f 422 448 722
f 448 422 421
f 308 692 260
f 277 276 675
f 315 675 276
f 348 349 306
f 675 278 277
f 674 303 302
f 259 235 666
f 235 307 666
f 650 678 288
f 261 327 595
f 662 676 375
f 293 251 278
f 320 319 339
f 296 295 667
f 649 667 295
f 421 422 398
f 786 677 343
f 420 419 446
f 642 314 623
f 359 340 376
f 668 224 223
f 317 668 223
f 288 287 650
f 303 650 287
f 644 645 669
f 612 637 416
f 670 691 305
f 305 691 746
f 629 654 644
f 679 296 318
f 280 700 671
f 668 671 700
f 344 674 301
f 692 308 624
f 602 675 315
f 682 320 676
f 375 676 320
f 281 718 776
f 344 343 677
f 287 688 302
f 290 717 690
f 319 282 679
f 253 281 748
f 786 361 378
f 335 278 675
f 289 690 206
f 397 377 419
f 206 257 678
f 288 678 257
f 343 300 685
f 666 307 592
f 360 359 377
f 419 377 359
f 288 689 287
f 679 710 714
f 296 679 714
f 757 445 673
f 643 423 672
f 2 1 680
f 51 680 1
f 50 49 102
f 681 321 340
f 359 681 340
f 687 256 301
f 61 680 51
f 375 396 445
f 323 685 299
f 284 297 682
f 297 284 283
f 321 681 686
f 80 61 79
f 683 711 284
f 78 102 103
f 80 79 684
f 104 684 79
f 286 685 255
f 712 103 102
f 285 782 686
f 321 686 782
f 687 704 256
f 715 687 688
f 689 731 715
f 287 689 688
f 233 208 691
f 746 691 208
f 258 719 233
f 234 720 292
f 260 726 259
f 236 260 692
f 262 236 261
f 237 215 262
f 643 648 656
f 239 193 265
f 693 216 239
f 266 693 239
f 310 241 693
f 267 217 241
f 694 218 267
f 608 694 267
f 268 744 242
f 156 684 127
f 269 695 744
f 244 243 696
f 270 696 695
f 245 244 769
f 232 205 204
f 246 245 697
f 272 697 769
f 247 246 698
f 273 698 697
f 699 219 248
f 251 293 724
f 279 223 252
f 700 224 668
f 716 253 701
f 295 714 716
f 155 712 202
f 630 649 759
f 183 202 203
f 766 202 785
f 758 706 205
f 423 449 703
f 627 670 305
f 635 660 659
f 284 711 230
f 256 704 706
f 650 346 644
f 637 651 646
f 283 230 707
f 639 263 664
f 205 706 157
f 707 182 732
f 282 707 710
f 157 708 684
f 732 229 710
f 702 418 495
f 81 80 708
f 80 62 680
f 713 725 709
f 743 49 48
f 102 743 713
f 229 228 714
f 716 714 228
f 759 748 338
f 185 775 704
f 715 728 185
f 687 715 185
f 228 227 716
f 253 716 227
f 767 182 230
f 717 188 690
f 281 201 718
f 775 128 105
f 280 225 700
f 725 154 767
f 182 767 154
f 279 294 316
f 700 737 224
f 233 719 209
f 292 258 306
f 336 668 317
f 154 725 125
f 187 158 731
f 257 187 731
f 211 210 720
f 292 720 719
f 678 650 654
f 82 81 105
f 212 211 721
f 234 721 720
f 446 496 723
f 724 199 222
f 251 724 222
f 747 125 725
f 726 189 212
f 235 726 768
f 674 344 648
f 81 727 62
f 728 106 736
f 185 728 128
f 729 735 187
f 206 729 187
f 730 198 221
f 277 730 221
f 260 213 726
f 181 124 153
f 227 178 201
f 732 153 180
f 229 732 180
f 291 305 746
f 326 305 291
f 733 190 214
f 236 733 213
f 776 718 280
f 713 709 712
f 191 190 215
f 171 783 734
f 220 734 783
f 160 159 188
f 207 161 160
f 250 734 220
f 82 128 736
f 728 736 128
f 159 735 729
f 3 62 727
f 238 751 192
f 240 139 195
f 195 194 216
f 696 270 311
f 47 46 77
f 59 77 46
f 737 174 224
f 152 738 101
f 299 685 286
f 165 217 218
f 162 161 208
f 737 176 175
f 205 232 758
f 255 758 232
f 241 310 658
f 175 174 737
f 687 302 688
f 758 255 685
f 91 90 136
f 298 686 322
f 426 599 739
f 765 739 599
f 302 687 301
f 780 740 787
f 4 3 727
f 178 151 150
f 174 200 224
f 159 741 109
f 345 648 742
f 643 742 648
f 736 63 82
f 48 747 743
f 695 243 744
f 196 744 243
f 87 745 163
f 207 717 746
f 291 746 717
f 713 743 747
f 773 5 4
f 191 137 136
f 129 85 84
f 48 47 747
f 77 747 47
f 281 776 748
f 338 748 776
f 64 109 741
f 212 745 211
f 592 749 772
f 449 423 750
f 656 750 423
f 786 422 750
f 741 159 160
f 192 751 137
f 42 41 752
f 99 752 41
f 259 726 235
f 620 353 573
f 753 239 265
f 638 753 265
f 175 148 754
f 99 754 148
f 137 191 192
f 761 755 636
f 443 755 761
f 760 756 96
f 662 375 757
f 445 757 375
f 300 256 758
f 706 758 256
f 755 759 636
f 630 759 755
f 762 760 781
f 636 587 761
f 443 761 587
f 219 762 763
f 248 219 763
f 783 756 760
f 762 197 763
f 248 763 197
f 248 764 274
f 247 764 248
f 599 634 765
f 325 765 634
f 782 766 785
f 230 711 767
f 212 721 768
f 235 768 721
f 244 696 769
f 271 769 696
f 86 740 770
f 780 770 740
f 773 771 52
f 63 771 773
f 774 772 749
f 427 772 774
f 52 5 773
f 749 583 774
f 427 774 583
f 4 63 773
f 708 157 775
f 706 775 157
f 280 337 776
f 631 776 337
f 357 671 336
f 8 54 777
f 84 777 54
f 238 192 237
f 240 217 778
f 165 778 217
f 166 165 779
f 218 779 165
f 55 780 787
f 787 87 55
f 96 781 760
f 56 781 96
f 711 782 785
f 683 782 711
f 760 762 783
f 219 783 762
f 510 499 784
f 472 784 499
f 709 767 785
f 711 785 767
f 750 656 786
f 677 786 656
f 132 211 787
f 745 787 211
